<svg width="20" height="14" viewBox="0 0 20 14" fill="none" xmlns="http://www.w3.org/2000/svg">
<path fill-rule="evenodd" clip-rule="evenodd" d="M5.83365 6.65423C5.83365 6.65917 5.83365 6.66411 5.83365 6.66906C5.83365 8.96911 7.69779 10.834 9.99735 10.8356H10C12.3011 10.8356 14.1667 8.97002 14.1667 6.669L14.1665 6.65282C14.1578 4.3593 12.2957 2.50255 10 2.50255C7.70414 2.50255 5.84171 4.36004 5.83365 6.65423ZM7.50016 6.66906C7.50016 5.2885 8.61954 4.16912 10 4.16912C11.3807 4.16912 12.5 5.2885 12.5 6.66906C12.5 8.04961 11.3807 9.169 10 9.169C8.61954 9.169 7.50016 8.04961 7.50016 6.66906Z" fill="#B8B8B8"/>
<path fill-rule="evenodd" clip-rule="evenodd" d="M0.244176 7.25878C0.203526 7.21813 0.167882 7.17425 0.137364 7.12804C-0.0762587 6.80462 -0.0407362 6.36498 0.244054 6.08019L3.72403 2.60033C4.96781 1.35656 6.51395 0.539786 8.16214 0.191763C9.35953 -0.0610444 10.6111 -0.0667817 11.838 0.191763C13.486 0.539908 15.0326 1.35674 16.2762 2.60033L19.756 6.07934C20.0816 6.40472 20.0816 6.93243 19.7561 7.25793L16.2763 10.7378C14.9341 12.0799 13.2392 12.9252 11.4447 13.2204C10.3681 13.3976 9.25565 13.3768 8.16214 13.1464C6.5142 12.7982 4.96756 11.9814 3.72391 10.7378L0.244176 7.25878ZM11.4945 11.5156L11.5104 11.5124C12.8424 11.2276 14.0917 10.5653 15.0977 9.55932L17.9883 6.66875L15.0977 3.7788C14.0915 2.77257 12.8418 2.11022 11.5094 1.82555L11.4945 1.82256C10.6056 1.63524 9.70182 1.61822 8.82718 1.76201C8.7316 1.77776 8.63614 1.79565 8.54081 1.8153L8.50565 1.82256L8.49076 1.82555C7.15836 2.11022 5.90873 2.77257 4.9025 3.7788L2.01188 6.66936L4.9025 9.55932C5.90848 10.5653 7.15787 11.2276 8.4899 11.5124L8.50565 11.5156C9.50394 11.7259 10.5212 11.7214 11.4945 11.5156Z" fill="#B8B8B8"/>
</svg>
